<?xml version="1.0" encoding="utf-8"?>
<!-- Generator: Adobe Illustrator 24.1.0, SVG Export Plug-In . SVG Version: 6.00 Build 0)  -->
<svg version="1.1" id="Capa_1" xmlns="http://www.w3.org/2000/svg" xmlns:xlink="http://www.w3.org/1999/xlink" x="0px" y="0px"
	 viewBox="0 0 1024 561" style="enable-background:new 0 0 1024 561;" xml:space="preserve">
<style type="text/css">
	.st0{fill:#FFFFFF;}
	.st1{fill:#F5333F;}
</style>
<g>
	<g>
		<g>
			<g>
				<path class="st0" d="M479,204.7l-2.3,0c-3.4,0-6.1,2.7-6.1,6.2l0,103.3c0,3.5,2.7,6.2,6.1,6.2l2.3,0c3.4,0,6.1-2.8,6.1-6.2
					l0-103.3C485.2,207.5,482.4,204.7,479,204.7z"/>
				<path class="st0" d="M543.3,238.6l-25.7,0c-11.1,0-20.2,8.8-20.2,19.6l0,42.2c0,11,8.8,20,19.5,20l27,0
					c10.8,0,19.6-8.9,19.6-19.9l0-42.2C563.5,247.4,554.4,238.6,543.3,238.6z M548.9,260.2l0,38.6c0,4.4-3.6,8-7.9,8l-21.2,0
					c-4.4,0-7.8-3.5-7.8-8l0-38.6c0-4.4,3.6-8,7.9-8l21,0C545.2,252.2,548.9,255.9,548.9,260.2z"/>
				<path class="st0" d="M633,238.6l-2.8,0c-1.8,0-3.7,1.5-4.5,3l-1.8,3.4c-0.1,0.2-0.4,0.9-1.8,0.9c-2,0-4.5-1.2-7.3-2.6
					c-4.7-2.3-10.5-5.1-18.3-5.1l-2.5,0c-13.7,0-22.5,8.2-22.5,21l0,40.9c0,12.9,8.6,21,22.5,21l2.5,0c7.8,0,13.7-2.7,18.4-4.9
					c2.8-1.3,5.3-2.5,7.2-2.5c0.5,0,1.1,1,1.1,2l0,18.8c0,6.2-3.3,9.4-9.7,9.4l-15.4,0c-3.6,0-6.1,2.5-6.1,5.9l0,1.8
					c0,3.4,2.6,5.9,6.1,5.9l20.2,0c10.8,0,19.5-8.9,19.5-19.9l0-93.2C637.8,240.8,635.8,238.6,633,238.6z M623.2,261.1l0,36.9
					c0,4.9-3.9,8.9-8.8,8.9l-19.7,0c-4.8,0-8.8-4-8.8-8.9l0-36.9c0-5,3.8-8.9,8.8-8.9l19.7,0C619.3,252.2,623.2,256.1,623.2,261.1z"
					/>
				<path class="st0" d="M658.5,238.6l-2.3,0c-3.4,0-6.1,2.7-6.1,6.2l0,69.4c0,3.5,2.7,6.2,6.1,6.2l2.3,0c3.4,0,6.1-2.8,6.1-6.2
					l0-69.4C664.6,241.4,661.8,238.6,658.5,238.6z"/>
				<path class="st0" d="M676.7,213.3c0-1.2-0.3-2.4-0.8-3.2l-1.3-2.5c-1.1-2-3.3-3.3-5.5-3.3c-1.1,0-2.1,0.3-2.9,0.9l-25.5,16.9
					c-1.5,1-2.9,3.5-1.9,5.2l1,2c0.6,1.3,2.4,1.7,3.8,1.7c0.5,0,1.2-0.1,1.7-0.3l27.9-12C675.2,217.8,676.7,215.5,676.7,213.3z"/>
				<path class="st0" d="M723.5,273l-26.7,0c-5.5,0-7.9-4.2-7.9-7.2l0-6.2c0-4.6,3.1-7.4,8.3-7.4l30,0c3.5,0,6.1-2.5,6.1-5.9l0-1.8
					c0-3.3-2.7-5.9-6.3-5.9l-32.6,0c-12.9,0-20,11-20,18.6l0,10.4c0,11.2,9,18.1,17.4,18.1l27.1,0c5.4,0,5.9,4.2,5.9,6l0,6.7
					c0,0.9-0.2,8.4-5.9,8.4l-38.6,0c-3.6,0-6.1,2.5-6.1,5.9l0,1.8c0,3.4,2.6,5.9,6.1,5.9l40.9,0c11.1,0,18.2-7.8,18.2-19.9l0-11.2
					C739.4,278,731.4,273,723.5,273z"/>
				<path class="st0" d="M785.1,238.6l-18.5,0l0-27.7c0-3.4-2.8-6.2-6.1-6.2l-2.3,0c-3.4,0-6.1,2.7-6.1,6.2l0,27.7l-10.4,0
					c-3.6,0-6.1,2.5-6.1,5.9l0,1.8c0,3.4,2.6,5.9,6.1,5.9l10.4,0l0,62c0,3.5,2.7,6.2,6.1,6.2l2.3,0c3.4,0,6.1-2.8,6.1-6.2l0-62
					l18.5,0c3.6,0,6.1-2.5,6.1-5.9l0-1.8C791.2,241.1,788.6,238.6,785.1,238.6z"/>
				<path class="st0" d="M802.1,238.6l-2.3,0c-3.4,0-6.1,2.7-6.1,6.2l0,69.4c0,3.5,2.7,6.2,6.1,6.2l2.3,0c3.4,0,6.1-2.8,6.1-6.2
					l0-69.4C808.3,241.4,805.5,238.6,802.1,238.6z"/>
				<path class="st0" d="M802.1,204.8l-2.3,0c-3.4,0-6.1,2.7-6.1,6.2l0,9.2c0,3.5,2.7,6.2,6.1,6.2l2.3,0c3.4,0,6.1-2.8,6.1-6.2
					l0-9.2C808.3,207.6,805.5,204.8,802.1,204.8z"/>
				<path class="st0" d="M869,306.9l-27.3,0c-6.7,0-9.9-3-9.9-9.2l0-35.7c0-6.4,3.3-9.7,9.7-9.7l25.5,0c3.6,0,6.1-2.5,6.1-5.9l0-1.8
					c0-3.4-2.6-5.9-6.1-5.9l-29.8,0c-11.1,0-20,8.9-20,19.8l0,41.7c0,11.2,8.7,20.3,19.4,20.3l32.4,0c3.6,0,6.1-2.5,6.1-5.9l0-1.8
					C875.1,309.3,872.5,306.9,869,306.9z"/>
				<path class="st0" d="M923.1,238.6l-33.8,0c-3.5,0-6.1,2.5-6.1,5.9l0,1.8c0,3.3,2.7,5.9,6.3,5.9l29.3,0c6.2,0,9.6,3.4,9.6,9.6
					l0,11.7c0,1-0.5,1.8-1.1,1.8c-1.9,0-4.4-1.2-7.2-2.6c-4.7-2.3-10.6-5.1-18.5-5.1l-2.5,0c-13.7,0-22.5,8.2-22.5,21l0,11.4
					c0,12.7,8.8,21,22.5,21l2.5,0c7.8,0,13.7-2.7,18.4-4.9c2.8-1.3,5.3-2.5,7.2-2.5c1.2,0,1.3,0,2,1.1l1.6,2.8
					c0.8,1.5,2.7,2.9,4.7,2.9l2.3,0c2.9,0,5.1-2.3,5.1-5.4l0-56.8C943,247.8,933.7,238.6,923.1,238.6z M891.2,289.1
					c0-4.1,3.3-7.4,7.4-7.4l22.3,0c4.1,0,7.4,3.3,7.4,7.4l0,10.4c0,4.1-3.3,7.4-7.4,7.4l-22.3,0c-4.1,0-7.4-3.3-7.4-7.4L891.2,289.1
					z"/>
			</g>
		</g>
	</g>
	<g id="XMLID_20_">
		<path id="XMLID_24_" class="st1" d="M415,320.4l34.5,0c4,0,6-4.9,3.1-7.7L403.4,266c-1.8-1.8-1.8-4.7,0-6.5l49.4-47.1
			c2.9-2.8,0.9-7.7-3.1-7.7l-34.1,0c-1.1,0-2.2,0.4-3.1,1.2l-33.3,31.3c-1.7,1.6-4.4,1.6-6.1,0l-33-31.3c-0.8-0.8-1.9-1.2-3.1-1.2
			l-34.3,0c-4,0-6,4.9-3.1,7.7l49.4,47.1c1.8,1.8,1.8,4.7,0,6.5L300,312.7c-2.9,2.8-1,7.7,3.1,7.7l34.5,0c1.1,0,2.2-0.4,3.1-1.2
			l32.6-30.7c1.7-1.6,4.4-1.6,6.1,0l32.6,30.7C412.8,320,413.9,320.4,415,320.4z"/>
		<path id="XMLID_21_" class="st1" d="M263,204.7l-136.3,0c-1.1,0-2.1,0.4-2.9,1.1l-15.5,13.6c-1,0.8-1.5,2.1-1.5,3.3l0,79.9
			c0,1.3,0.5,2.5,1.5,3.3l14.6,13.2c0.8,0.7,1.9,1.1,3,1.1l57.7,0c2.5,0,4.5,2,4.5,4.5l0,14.5c0,2.8,2.5,4.9,5.3,4.4l27.4-5.2
			c2.1-0.4,3.6-2.2,3.6-4.4l0-13.7l0.1,0l38.6,0c1.1,0,2.1-0.4,2.9-1l15.2-12.8c1-0.8,1.6-2.1,1.6-3.4l0-81.3c0-1.3-0.6-2.6-1.6-3.4
			l-15.2-12.6C265.1,205.1,264,204.7,263,204.7z M241.9,289.5l-13.5,0c-2.5,0-4.5-2-4.5-4.5l0-9.1c0-2.5-2-4.5-4.5-4.5l-27.4,0
			c-2.5,0-4.5,2-4.5,4.5l0,8.9c0,2.5-2,4.5-4.5,4.5l-35.9,0c-2.5,0-4.5-2-4.5-4.5l0-44.6c0-2.5,2-4.5,4.5-4.5l94.6,0
			c2.5,0,4.5,2,4.5,4.5l0,44.8C246.3,287.5,244.3,289.5,241.9,289.5z"/>
	</g>
</g>
</svg>
